<?xml version="1.0" encoding="utf-8"?>
<!-- Generator: Adobe Illustrator 17.0.0, SVG Export Plug-In . SVG Version: 6.00 Build 0)  -->
<!DOCTYPE svg PUBLIC "-//W3C//DTD SVG 1.0//EN" "http://www.w3.org/TR/2001/REC-SVG-20010904/DTD/svg10.dtd">
<svg version="1.0" id="Calque_1" xmlns="http://www.w3.org/2000/svg" xmlns:xlink="http://www.w3.org/1999/xlink" x="0px" y="0px"
	 width="433px" height="578.353px" viewBox="0 0 433 578.353" enable-background="new 0 0 433 578.353" xml:space="preserve">
<path fill="#3D3D3D" d="M86.569,454.302v-64.677h17.866v64.677c0,2.489,0.859,4.596,2.582,6.318
	c1.721,1.722,3.829,2.584,6.319,2.584c2.446,0,4.522-0.862,6.225-2.584c1.7-1.722,2.55-3.829,2.55-6.318v-64.677h17.866v64.677
	c0,2.489,0.874,4.596,2.615,6.318c1.744,1.722,3.838,2.584,6.287,2.584c2.49,0,4.608-0.862,6.349-2.584
	c1.744-1.722,2.615-3.829,2.615-6.318v-64.677h17.866v64.677c0,7.429-2.624,13.767-7.874,19.016
	c-5.25,5.25-11.57,7.876-18.956,7.876c-6.764,0-12.698-2.304-17.804-6.91c-4.978,4.606-10.892,6.91-17.738,6.91
	c-7.389,0-13.696-2.625-18.926-7.876C89.184,468.069,86.569,461.731,86.569,454.302z"/>
<path fill="#3D3D3D" d="M192.977,478.89v-89.265h17.866v89.265H192.977z"/>
<path fill="#3D3D3D" d="M227.985,478.89v-89.265h17.866v71.399h35.542v17.866H227.985z"/>
<path fill="#3D3D3D" d="M294.064,478.89v-89.265h22.284c5.644,0,10.853,1.401,15.624,4.202c4.774,2.801,8.549,6.598,11.33,11.392
	c2.781,4.793,4.17,10.012,4.17,15.655v26.766c0,5.603-1.389,10.801-4.17,15.594c-2.781,4.793-6.556,8.601-11.33,11.422
	c-4.771,2.824-9.98,4.233-15.624,4.233H294.064z M311.93,461.024h4.418c3.693,0,6.826-1.316,9.399-3.952
	c2.573-2.636,3.859-5.779,3.859-9.432v-26.766c0-3.693-1.285-6.848-3.859-9.461c-2.573-2.615-5.706-3.922-9.399-3.922h-4.418
	V461.024z"/>
<path fill="#F8AC38" d="M95.843,527.548c-2.736,0-4.981-0.982-6.734-2.736c-2.526-2.525-2.455-5.646-2.455-9.96
	c0-4.313-0.071-7.435,2.455-9.96c1.753-1.753,3.998-2.736,6.734-2.736c4.664,0,8.312,2.666,9.189,7.892h-4.945
	c-0.491-1.999-1.754-3.542-4.209-3.542c-1.333,0-2.42,0.49-3.121,1.297c-0.946,1.053-1.227,2.245-1.227,7.049
	c0,4.805,0.281,5.998,1.227,7.049c0.702,0.807,1.789,1.298,3.121,1.298c2.455,0,3.718-1.543,4.209-3.543h4.945
	C104.155,524.883,100.472,527.548,95.843,527.548z"/>
<path fill="#F8AC38" d="M127.861,524.812c-1.753,1.754-3.893,2.736-6.734,2.736c-2.84,0-5.015-0.982-6.768-2.736
	c-2.526-2.525-2.455-5.646-2.455-9.96c0-4.313-0.071-7.435,2.455-9.96c1.753-1.753,3.928-2.736,6.768-2.736
	c2.841,0,4.981,0.983,6.734,2.736c2.526,2.526,2.49,5.647,2.49,9.96C130.352,519.166,130.387,522.287,127.861,524.812z
	 M124.25,507.838c-0.702-0.807-1.789-1.333-3.122-1.333c-1.333,0-2.455,0.526-3.156,1.333c-0.947,1.052-1.193,2.209-1.193,7.014
	c0,4.805,0.246,5.962,1.193,7.015c0.701,0.807,1.823,1.333,3.156,1.333c1.334,0,2.421-0.526,3.122-1.333
	c0.946-1.053,1.227-2.21,1.227-7.015C125.477,510.047,125.196,508.889,124.25,507.838z"/>
<path fill="#F8AC38" d="M154.444,524.952c-1.648,1.649-3.998,2.385-6.593,2.385h-9.014v-24.972h9.014
	c2.595,0,4.945,0.737,6.593,2.385c2.806,2.806,2.526,6.243,2.526,9.996C156.97,518.5,157.25,522.147,154.444,524.952z
	 M151.042,508.258c-0.841-1.017-1.964-1.543-3.647-1.543h-3.682v16.274h3.682c1.683,0,2.806-0.527,3.647-1.544
	c0.912-1.122,1.053-2.911,1.053-6.698C152.094,510.959,151.954,509.38,151.042,508.258z"/>
<path fill="#F8AC38" d="M165.455,527.338v-24.972h16.45v4.35H170.33v5.857h9.855v4.349h-9.855v6.068h11.574v4.349H165.455z"/>
<path fill="#3D3D3D" d="M208.695,527.548c-3.788,0-6.664-0.807-9.119-3.296l3.157-3.157c1.578,1.578,3.718,2.104,6.032,2.104
	c2.877,0,4.42-1.087,4.42-3.087c0-0.877-0.246-1.613-0.771-2.104c-0.491-0.456-1.053-0.702-2.21-0.877l-3.016-0.421
	c-2.139-0.315-3.718-0.983-4.84-2.07c-1.192-1.192-1.789-2.806-1.789-4.91c0-4.454,3.297-7.576,8.698-7.576
	c3.437,0,5.927,0.842,8.067,2.911l-3.087,3.052c-1.577-1.508-3.472-1.718-5.12-1.718c-2.595,0-3.858,1.438-3.858,3.156
	c0,0.632,0.211,1.298,0.737,1.789c0.49,0.456,1.297,0.842,2.314,0.983l2.946,0.421c2.28,0.315,3.718,0.947,4.77,1.929
	c1.333,1.263,1.928,3.086,1.928,5.296C217.954,524.812,213.921,527.548,208.695,527.548z"/>
<path fill="#3D3D3D" d="M234.401,527.548c-2.736,0-4.981-0.982-6.734-2.736c-2.526-2.525-2.455-5.646-2.455-9.96
	c0-4.313-0.071-7.435,2.455-9.96c1.753-1.753,3.998-2.736,6.734-2.736c4.664,0,8.312,2.666,9.189,7.892h-4.945
	c-0.491-1.999-1.753-3.542-4.209-3.542c-1.333,0-2.42,0.49-3.121,1.297c-0.946,1.053-1.227,2.245-1.227,7.049
	c0,4.805,0.281,5.998,1.227,7.049c0.702,0.807,1.789,1.298,3.121,1.298c2.456,0,3.718-1.543,4.209-3.543h4.945
	C242.713,524.883,239.03,527.548,234.401,527.548z"/>
<path fill="#3D3D3D" d="M264.631,527.338v-10.452h-8.452v10.452h-4.876v-24.972h4.876v10.207h8.452v-10.207h4.876v24.972H264.631z"
	/>
<path fill="#3D3D3D" d="M293.949,524.812c-1.753,1.754-3.893,2.736-6.734,2.736c-2.84,0-5.015-0.982-6.768-2.736
	c-2.526-2.525-2.455-5.646-2.455-9.96c0-4.313-0.071-7.435,2.455-9.96c1.753-1.753,3.928-2.736,6.768-2.736
	c2.841,0,4.981,0.983,6.734,2.736c2.526,2.526,2.49,5.647,2.49,9.96C296.439,519.166,296.474,522.287,293.949,524.812z
	 M290.337,507.838c-0.702-0.807-1.79-1.333-3.122-1.333s-2.455,0.526-3.157,1.333c-0.946,1.052-1.192,2.209-1.192,7.014
	c0,4.805,0.246,5.962,1.192,7.015c0.702,0.807,1.824,1.333,3.157,1.333s2.421-0.526,3.122-1.333c0.946-1.053,1.227-2.21,1.227-7.015
	C291.564,510.047,291.283,508.889,290.337,507.838z"/>
<path fill="#3D3D3D" d="M320.04,524.812c-1.753,1.754-3.893,2.736-6.734,2.736c-2.84,0-5.015-0.982-6.768-2.736
	c-2.526-2.525-2.455-5.646-2.455-9.96c0-4.313-0.071-7.435,2.455-9.96c1.753-1.753,3.928-2.736,6.768-2.736
	c2.841,0,4.981,0.983,6.734,2.736c2.526,2.526,2.49,5.647,2.49,9.96C322.53,519.166,322.565,522.287,320.04,524.812z
	 M316.428,507.838c-0.702-0.807-1.789-1.333-3.122-1.333c-1.333,0-2.455,0.526-3.156,1.333c-0.947,1.052-1.193,2.209-1.193,7.014
	c0,4.805,0.246,5.962,1.193,7.015c0.701,0.807,1.823,1.333,3.156,1.333c1.334,0,2.421-0.526,3.122-1.333
	c0.946-1.053,1.227-2.21,1.227-7.015C317.656,510.047,317.375,508.889,316.428,507.838z"/>
<path fill="#3D3D3D" d="M331.015,527.338v-24.972h4.876v20.623h11.328v4.349H331.015z"/>
<g>
	<path fill="#F8AC38" d="M251.1,178.592c-0.83,0.719-1.628,1.393-2.376,2.004c-6.616,5.41-16.61,10.732-25.224,15.068
		c-19.112,9.622-35.843,16.308-58.029,22.432c-10.169,2.808-24.569,4.126-33.511,3.223c-34.736-3.504-61.49-24.847-76.248-47.734
		c-1.352,8.484-2.077,17.176-2.077,26.04c0,37.812,12.812,72.611,34.289,100.369c2.499-3.234,5.089-6.339,7.874-9.155
		c35.806-36.205,89.398-35.498,128.838-65.947c14.345-11.075,27.823-27.217,40.935-41.688
		c-10.649,12.009-17.398,14.801-27.811,15.641c3.275-8.716,7.313-14.161,11.142-17.881
		C249.674,180.212,250.396,179.412,251.1,178.592z"/>
	<path fill="#F8AC38" d="M285.029,165.193c0.746-0.515,1.353-1.2,1.868-1.927c1.922-2.71,3.852-6.812-3.225-2.842
		c-0.969,0.542-1.803,1.231-2.393,2.032C277.754,167.229,281.078,167.92,285.029,165.193z"/>
	<path fill="#F8AC38" d="M217.84,35.419c-81.061,0-148.356,58.754-161.74,135.989c9.245,8.328,17.961,18.837,32.014,23.526
		c16.131,5.385,33.942,2.581,45.847-3.314c-2.497-14.249-15.124-24.604-29.056-34.458c25.291,5.697,38.86,23.259,53.999,36.499
		c14.645,1.41,27.103-1.412,40.293-5.353c19.792-5.915,41.613-15.736,56.284-29.696c4.76-4.528,10.959-11.047,14.072-16.148
		c8.518-13.959,9.843-28.959,12.234-41.091c1.486,17.115-0.4,37.993-13.28,58.455c3.772-2.526,8.016-4.984,11.696-7.603
		c12.965-9.224,23.396-16.748,36.337-26.5c4.636-3.492,14.008-13.017,19.068-10.911c4.746,1.976,4.173,11.87,3.398,16.589
		c-1.947,11.823-5.495,22.363-8.637,31.059c-9.522,26.347-22.47,50.453-34.862,74.547c-25.321,49.221-54.88,78.391-89.308,102.044
		c-9.631,6.617-19.637,12.856-29.367,19.614c12.389,3.185,25.355,4.919,38.694,5.104c1.396-12.12,2.916-29.445,2.916-29.445
		l27.033-23.397c-4.432,17.966-6.827,36.307-13.158,52.228c83.901-7.336,149.728-77.727,149.728-163.532
		C382.045,108.936,308.527,35.419,217.84,35.419z"/>
</g>
</svg>
